<svg xmlns="http://www.w3.org/2000/svg" width="240" height="240" viewBox="0 0 240 240" role="img" aria-label="Dummy QR-code voor overmaken">
  <rect width="240" height="240" fill="#ffffff" />
  <rect x="16" y="16" width="56" height="56" fill="#111111" />
  <rect x="24" y="24" width="40" height="40" fill="#ffffff" />
  <rect x="32" y="32" width="24" height="24" fill="#111111" />

  <rect x="168" y="16" width="56" height="56" fill="#111111" />
  <rect x="176" y="24" width="40" height="40" fill="#ffffff" />
  <rect x="184" y="32" width="24" height="24" fill="#111111" />

  <rect x="16" y="168" width="56" height="56" fill="#111111" />
  <rect x="24" y="176" width="40" height="40" fill="#ffffff" />
  <rect x="32" y="184" width="24" height="24" fill="#111111" />

  <rect x="104" y="24" width="16" height="16" fill="#111111" />
  <rect x="128" y="24" width="16" height="16" fill="#111111" />
  <rect x="88" y="40" width="16" height="16" fill="#111111" />
  <rect x="120" y="48" width="24" height="24" fill="#111111" />
  <rect x="96" y="72" width="16" height="16" fill="#111111" />

  <rect x="96" y="104" width="16" height="16" fill="#111111" />
  <rect x="120" y="104" width="24" height="16" fill="#111111" />
  <rect x="152" y="104" width="16" height="16" fill="#111111" />
  <rect x="72" y="120" width="24" height="24" fill="#111111" />
  <rect x="112" y="128" width="16" height="16" fill="#111111" />
  <rect x="136" y="128" width="24" height="24" fill="#111111" />
  <rect x="168" y="136" width="16" height="16" fill="#111111" />

  <rect x="88" y="160" width="16" height="16" fill="#111111" />
  <rect x="112" y="160" width="24" height="16" fill="#111111" />
  <rect x="144" y="160" width="16" height="16" fill="#111111" />
  <rect x="104" y="184" width="16" height="16" fill="#111111" />
  <rect x="128" y="184" width="24" height="24" fill="#111111" />
</svg>
